<svg width="500" height="500" viewBox="0 0 500 500" fill="none" xmlns="http://www.w3.org/2000/svg">
<path d="M0 61.1038C0 27.3571 27.3571 0 61.1038 0H438.896C472.643 0 500 27.3571 500 61.1038V438.896C500 472.643 472.643 500 438.896 500H61.1038C27.3571 500 0 472.643 0 438.896V61.1038Z" fill="black"/>
<path d="M176.187 103.811C174.237 103.811 172.656 105.391 172.656 107.341V117.933C172.656 119.883 174.237 121.464 176.187 121.464H186.779C188.729 121.464 190.309 119.883 190.309 117.933V107.341C190.309 105.391 188.729 103.811 186.779 103.811H176.187Z" fill="white"/>
<path d="M176.187 126.759C174.237 126.759 172.656 128.34 172.656 130.29V140.882C172.656 142.831 174.237 144.412 176.187 144.412H186.779C188.729 144.412 190.309 142.831 190.309 140.882V130.29C190.309 128.34 188.729 126.759 186.779 126.759H176.187Z" fill="white"/>
<path d="M176.187 264.451C174.237 264.451 172.656 266.031 172.656 267.981V278.573C172.656 280.523 174.237 282.103 176.187 282.103H186.779C188.729 282.103 190.309 280.523 190.309 278.573V267.981C190.309 266.031 188.729 264.451 186.779 264.451H176.187Z" fill="white"/>
<path d="M172.656 199.136C172.656 197.186 174.237 195.605 176.187 195.605H186.779C188.729 195.605 190.309 197.186 190.309 199.136V209.727C190.309 211.677 188.729 213.258 186.779 213.258H176.187C174.237 213.258 172.656 211.677 172.656 209.727V199.136Z" fill="white"/>
<path d="M176.187 333.296C174.237 333.296 172.656 334.877 172.656 336.827V347.419C172.656 349.368 174.237 350.949 176.187 350.949H186.779C188.729 350.949 190.309 349.368 190.309 347.419V336.827C190.309 334.877 188.729 333.296 186.779 333.296H176.187Z" fill="white"/>
<path d="M172.656 153.238C172.656 151.289 174.237 149.708 176.187 149.708H186.779C188.729 149.708 190.309 151.289 190.309 153.238V163.83C190.309 165.78 188.729 167.361 186.779 167.361H176.187C174.237 167.361 172.656 165.78 172.656 163.83V153.238Z" fill="white"/>
<path d="M176.187 287.399C174.237 287.399 172.656 288.98 172.656 290.93V301.521C172.656 303.471 174.237 305.052 176.187 305.052H186.779C188.729 305.052 190.309 303.471 190.309 301.521V290.93C190.309 288.98 188.729 287.399 186.779 287.399H176.187Z" fill="white"/>
<path d="M172.656 222.084C172.656 220.134 174.237 218.554 176.187 218.554H186.779C188.729 218.554 190.309 220.134 190.309 222.084V232.676C190.309 234.626 188.729 236.206 186.779 236.206H176.187C174.237 236.206 172.656 234.626 172.656 232.676V222.084Z" fill="white"/>
<path d="M176.187 356.245C174.237 356.245 172.656 357.826 172.656 359.775V370.367C172.656 372.317 174.237 373.898 176.187 373.898H186.779C188.729 373.898 190.309 372.317 190.309 370.367V359.775C190.309 357.826 188.729 356.245 186.779 356.245H176.187Z" fill="white"/>
<path d="M172.656 382.724C172.656 380.774 174.237 379.194 176.187 379.194H186.779C188.729 379.194 190.309 380.774 190.309 382.724V393.316C190.309 395.266 188.729 396.846 186.779 396.846H176.187C174.237 396.846 172.656 395.266 172.656 393.316V382.724Z" fill="white"/>
<path d="M310.348 130.29C310.348 128.34 311.928 126.759 313.878 126.759H324.47C326.42 126.759 328.001 128.34 328.001 130.29V140.882C328.001 142.831 326.42 144.412 324.47 144.412H313.878C311.928 144.412 310.348 142.831 310.348 140.882V130.29Z" fill="white"/>
<path d="M313.878 264.451C311.928 264.451 310.348 266.031 310.348 267.981V278.573C310.348 280.523 311.928 282.103 313.878 282.103H324.47C326.42 282.103 328.001 280.523 328.001 278.573V267.981C328.001 266.031 326.42 264.451 324.47 264.451H313.878Z" fill="white"/>
<path d="M310.348 199.136C310.348 197.186 311.928 195.605 313.878 195.605H324.47C326.42 195.605 328.001 197.186 328.001 199.136V209.727C328.001 211.677 326.42 213.258 324.47 213.258H313.878C311.928 213.258 310.348 211.677 310.348 209.727V199.136Z" fill="white"/>
<path d="M313.878 333.296C311.928 333.296 310.348 334.877 310.348 336.827V347.419C310.348 349.368 311.928 350.949 313.878 350.949H324.47C326.42 350.949 328.001 349.368 328.001 347.419V336.827C328.001 334.877 326.42 333.296 324.47 333.296H313.878Z" fill="white"/>
<path d="M310.348 153.238C310.348 151.289 311.928 149.708 313.878 149.708H324.47C326.42 149.708 328.001 151.289 328.001 153.238V163.83C328.001 165.78 326.42 167.361 324.47 167.361H313.878C311.928 167.361 310.348 165.78 310.348 163.83V153.238Z" fill="white"/>
<path d="M313.878 287.399C311.928 287.399 310.348 288.98 310.348 290.93V301.521C310.348 303.471 311.928 305.052 313.878 305.052H324.47C326.42 305.052 328.001 303.471 328.001 301.521V290.93C328.001 288.98 326.42 287.399 324.47 287.399H313.878Z" fill="white"/>
<path d="M310.348 222.084C310.348 220.134 311.928 218.554 313.878 218.554H324.47C326.42 218.554 328.001 220.134 328.001 222.084V232.676C328.001 234.626 326.42 236.206 324.47 236.206H313.878C311.928 236.206 310.348 234.626 310.348 232.676V222.084Z" fill="white"/>
<path d="M313.878 356.245C311.928 356.245 310.348 357.826 310.348 359.775V370.367C310.348 372.317 311.928 373.898 313.878 373.898H324.47C326.42 373.898 328.001 372.317 328.001 370.367V359.775C328.001 357.826 326.42 356.245 324.47 356.245H313.878Z" fill="white"/>
<path d="M310.348 382.724C310.348 380.774 311.928 379.194 313.878 379.194H324.47C326.42 379.194 328.001 380.774 328.001 382.724V393.316C328.001 395.266 326.42 396.846 324.47 396.846H313.878C311.928 396.846 310.348 395.266 310.348 393.316V382.724Z" fill="white"/>
<path d="M313.878 103.811C311.928 103.811 310.348 105.391 310.348 107.341V117.933C310.348 119.883 311.928 121.464 313.878 121.464H324.47C326.42 121.464 328.001 119.883 328.001 117.933V107.341C328.001 105.391 326.42 103.811 324.47 103.811H313.878Z" fill="white"/>
<path d="M103.811 336.827C103.811 334.877 105.391 333.296 107.341 333.296H117.933C119.883 333.296 121.464 334.877 121.464 336.827V347.419C121.464 349.368 119.883 350.949 117.933 350.949H107.341C105.391 350.949 103.811 349.368 103.811 347.419V336.827Z" fill="white"/>
<path d="M107.341 149.708C105.391 149.708 103.811 151.289 103.811 153.238V163.83C103.811 165.78 105.391 167.361 107.341 167.361H117.933C119.883 167.361 121.464 165.78 121.464 163.83V153.238C121.464 151.289 119.883 149.708 117.933 149.708H107.341Z" fill="white"/>
<path d="M103.811 176.187C103.811 174.237 105.391 172.656 107.341 172.656H117.933C119.883 172.656 121.464 174.237 121.464 176.187V186.779C121.464 188.729 119.883 190.309 117.933 190.309H107.341C105.391 190.309 103.811 188.729 103.811 186.779V176.187Z" fill="white"/>
<path d="M107.341 310.348C105.391 310.348 103.811 311.929 103.811 313.878V324.47C103.811 326.42 105.391 328.001 107.341 328.001H117.933C119.883 328.001 121.464 326.42 121.464 324.47V313.878C121.464 311.929 119.883 310.348 117.933 310.348H107.341Z" fill="white"/>
<path d="M126.759 199.136C126.759 197.186 128.34 195.605 130.29 195.605H140.882C142.831 195.605 144.412 197.186 144.412 199.136V209.727C144.412 211.677 142.831 213.258 140.882 213.258H130.29C128.34 213.258 126.759 211.677 126.759 209.727V199.136Z" fill="white"/>
<path d="M130.29 287.399C128.34 287.399 126.759 288.98 126.759 290.93V301.521C126.759 303.471 128.34 305.052 130.29 305.052H140.882C142.831 305.052 144.412 303.471 144.412 301.521V290.93C144.412 288.98 142.831 287.399 140.882 287.399H130.29Z" fill="white"/>
<path d="M126.759 176.187C126.759 174.237 128.34 172.656 130.29 172.656H140.882C142.831 172.656 144.412 174.237 144.412 176.187V186.779C144.412 188.729 142.831 190.309 140.882 190.309H130.29C128.34 190.309 126.759 188.729 126.759 186.779V176.187Z" fill="white"/>
<path d="M130.29 310.348C128.34 310.348 126.759 311.929 126.759 313.878V324.47C126.759 326.42 128.34 328.001 130.29 328.001H140.882C142.831 328.001 144.412 326.42 144.412 324.47V313.878C144.412 311.929 142.831 310.348 140.882 310.348H130.29Z" fill="white"/>
<path d="M149.708 267.981C149.708 266.031 151.289 264.451 153.238 264.451H163.83C165.78 264.451 167.361 266.031 167.361 267.981V278.573C167.361 280.523 165.78 282.103 163.83 282.103H153.238C151.289 282.103 149.708 280.523 149.708 278.573V267.981Z" fill="white"/>
<path d="M153.238 218.554C151.289 218.554 149.708 220.134 149.708 222.084V232.676C149.708 234.626 151.289 236.206 153.238 236.206H163.83C165.78 236.206 167.361 234.626 167.361 232.676V222.084C167.361 220.134 165.78 218.554 163.83 218.554H153.238Z" fill="white"/>
<path d="M149.708 382.724C149.708 380.774 151.289 379.194 153.238 379.194H163.83C165.78 379.194 167.361 380.774 167.361 382.724V393.316C167.361 395.266 165.78 396.846 163.83 396.846H153.238C151.289 396.846 149.708 395.266 149.708 393.316V382.724Z" fill="white"/>
<path d="M153.238 103.811C151.289 103.811 149.708 105.391 149.708 107.341V117.933C149.708 119.883 151.289 121.464 153.238 121.464H163.83C165.78 121.464 167.361 119.883 167.361 117.933V107.341C167.361 105.391 165.78 103.811 163.83 103.811H153.238Z" fill="white"/>
<path d="M149.708 176.187C149.708 174.237 151.289 172.656 153.238 172.656H163.83C165.78 172.656 167.361 174.237 167.361 176.187V186.779C167.361 188.729 165.78 190.309 163.83 190.309H153.238C151.289 190.309 149.708 188.729 149.708 186.779V176.187Z" fill="white"/>
<path d="M153.238 310.348C151.289 310.348 149.708 311.929 149.708 313.878V324.47C149.708 326.42 151.289 328.001 153.238 328.001H163.83C165.78 328.001 167.361 326.42 167.361 324.47V313.878C167.361 311.929 165.78 310.348 163.83 310.348H153.238Z" fill="white"/>
<path d="M195.605 130.29C195.605 128.34 197.186 126.759 199.136 126.759H209.727C211.677 126.759 213.258 128.34 213.258 130.29V140.882C213.258 142.831 211.677 144.412 209.727 144.412H199.136C197.186 144.412 195.605 142.831 195.605 140.882V130.29Z" fill="white"/>
<path d="M199.136 264.451C197.186 264.451 195.605 266.031 195.605 267.981V278.573C195.605 280.523 197.186 282.103 199.136 282.103H209.727C211.677 282.103 213.258 280.523 213.258 278.573V267.981C213.258 266.031 211.677 264.451 209.727 264.451H199.136Z" fill="white"/>
<path d="M195.605 222.084C195.605 220.134 197.186 218.554 199.136 218.554H209.727C211.677 218.554 213.258 220.134 213.258 222.084V232.676C213.258 234.626 211.677 236.206 209.727 236.206H199.136C197.186 236.206 195.605 234.626 195.605 232.676V222.084Z" fill="white"/>
<path d="M199.136 356.245C197.186 356.245 195.605 357.826 195.605 359.775V370.367C195.605 372.317 197.186 373.898 199.136 373.898H209.727C211.677 373.898 213.258 372.317 213.258 370.367V359.775C213.258 357.826 211.677 356.245 209.727 356.245H199.136Z" fill="white"/>
<path d="M195.605 176.187C195.605 174.237 197.186 172.656 199.136 172.656H209.727C211.677 172.656 213.258 174.237 213.258 176.187V186.779C213.258 188.729 211.677 190.309 209.727 190.309H199.136C197.186 190.309 195.605 188.729 195.605 186.779V176.187Z" fill="white"/>
<path d="M199.136 310.348C197.186 310.348 195.605 311.929 195.605 313.878V324.47C195.605 326.42 197.186 328.001 199.136 328.001H209.727C211.677 328.001 213.258 326.42 213.258 324.47V313.878C213.258 311.929 211.677 310.348 209.727 310.348H199.136Z" fill="white"/>
<path d="M218.554 199.136C218.554 197.186 220.134 195.605 222.084 195.605H232.676C234.626 195.605 236.206 197.186 236.206 199.136V209.727C236.206 211.677 234.626 213.258 232.676 213.258H222.084C220.134 213.258 218.554 211.677 218.554 209.727V199.136Z" fill="white"/>
<path d="M222.084 333.296C220.134 333.296 218.554 334.877 218.554 336.827V347.419C218.554 349.368 220.134 350.949 222.084 350.949H232.676C234.626 350.949 236.206 349.368 236.206 347.419V336.827C236.206 334.877 234.626 333.296 232.676 333.296H222.084Z" fill="white"/>
<path d="M218.554 153.238C218.554 151.289 220.134 149.708 222.084 149.708H232.676C234.626 149.708 236.206 151.289 236.206 153.238V163.83C236.206 165.78 234.626 167.361 232.676 167.361H222.084C220.134 167.361 218.554 165.78 218.554 163.83V153.238Z" fill="white"/>
<path d="M222.084 287.399C220.134 287.399 218.554 288.98 218.554 290.93V301.521C218.554 303.471 220.134 305.052 222.084 305.052H232.676C234.626 305.052 236.206 303.471 236.206 301.521V290.93C236.206 288.98 234.626 287.399 232.676 287.399H222.084Z" fill="white"/>
<path d="M218.554 176.187C218.554 174.237 220.134 172.656 222.084 172.656H232.676C234.626 172.656 236.206 174.237 236.206 176.187V186.779C236.206 188.729 234.626 190.309 232.676 190.309H222.084C220.134 190.309 218.554 188.729 218.554 186.779V176.187Z" fill="white"/>
<path d="M222.084 310.348C220.134 310.348 218.554 311.929 218.554 313.878V324.47C218.554 326.42 220.134 328.001 222.084 328.001H232.676C234.626 328.001 236.206 326.42 236.206 324.47V313.878C236.206 311.929 234.626 310.348 232.676 310.348H222.084Z" fill="white"/>
<path d="M264.451 199.136C264.451 197.186 266.031 195.605 267.981 195.605H278.573C280.523 195.605 282.103 197.186 282.103 199.136V209.727C282.103 211.677 280.523 213.258 278.573 213.258H267.981C266.031 213.258 264.451 211.677 264.451 209.727V199.136Z" fill="white"/>
<path d="M267.981 333.296C266.031 333.296 264.451 334.877 264.451 336.827V347.419C264.451 349.368 266.031 350.949 267.981 350.949H278.573C280.523 350.949 282.103 349.368 282.103 347.419V336.827C282.103 334.877 280.523 333.296 278.573 333.296H267.981Z" fill="white"/>
<path d="M264.451 153.238C264.451 151.289 266.031 149.708 267.981 149.708H278.573C280.523 149.708 282.103 151.289 282.103 153.238V163.83C282.103 165.78 280.523 167.361 278.573 167.361H267.981C266.031 167.361 264.451 165.78 264.451 163.83V153.238Z" fill="white"/>
<path d="M267.981 287.399C266.031 287.399 264.451 288.98 264.451 290.93V301.521C264.451 303.471 266.031 305.052 267.981 305.052H278.573C280.523 305.052 282.103 303.471 282.103 301.521V290.93C282.103 288.98 280.523 287.399 278.573 287.399H267.981Z" fill="white"/>
<path d="M264.451 176.187C264.451 174.237 266.031 172.656 267.981 172.656H278.573C280.523 172.656 282.103 174.237 282.103 176.187V186.779C282.103 188.729 280.523 190.309 278.573 190.309H267.981C266.031 190.309 264.451 188.729 264.451 186.779V176.187Z" fill="white"/>
<path d="M267.981 310.348C266.031 310.348 264.451 311.929 264.451 313.878V324.47C264.451 326.42 266.031 328.001 267.981 328.001H278.573C280.523 328.001 282.103 326.42 282.103 324.47V313.878C282.103 311.929 280.523 310.348 278.573 310.348H267.981Z" fill="white"/>
<path d="M287.399 130.29C287.399 128.34 288.98 126.759 290.93 126.759H301.521C303.471 126.759 305.052 128.34 305.052 130.29V140.882C305.052 142.831 303.471 144.412 301.521 144.412H290.93C288.98 144.412 287.399 142.831 287.399 140.882V130.29Z" fill="white"/>
<path d="M290.93 264.451C288.98 264.451 287.399 266.031 287.399 267.981V278.573C287.399 280.523 288.98 282.103 290.93 282.103H301.521C303.471 282.103 305.052 280.523 305.052 278.573V267.981C305.052 266.031 303.471 264.451 301.521 264.451H290.93Z" fill="white"/>
<path d="M287.399 222.084C287.399 220.134 288.98 218.554 290.93 218.554H301.521C303.471 218.554 305.052 220.134 305.052 222.084V232.676C305.052 234.626 303.471 236.206 301.521 236.206H290.93C288.98 236.206 287.399 234.626 287.399 232.676V222.084Z" fill="white"/>
<path d="M290.93 356.245C288.98 356.245 287.399 357.826 287.399 359.775V370.367C287.399 372.317 288.98 373.898 290.93 373.898H301.521C303.471 373.898 305.052 372.317 305.052 370.367V359.775C305.052 357.826 303.471 356.245 301.521 356.245H290.93Z" fill="white"/>
<path d="M287.399 176.187C287.399 174.237 288.98 172.656 290.93 172.656H301.521C303.471 172.656 305.052 174.237 305.052 176.187V186.779C305.052 188.729 303.471 190.309 301.521 190.309H290.93C288.98 190.309 287.399 188.729 287.399 186.779V176.187Z" fill="white"/>
<path d="M290.93 310.348C288.98 310.348 287.399 311.929 287.399 313.878V324.47C287.399 326.42 288.98 328.001 290.93 328.001H301.521C303.471 328.001 305.052 326.42 305.052 324.47V313.878C305.052 311.929 303.471 310.348 301.521 310.348H290.93Z" fill="white"/>
<path d="M333.296 267.981C333.296 266.031 334.877 264.451 336.827 264.451H347.419C349.368 264.451 350.949 266.031 350.949 267.981V278.573C350.949 280.523 349.368 282.103 347.419 282.103H336.827C334.877 282.103 333.296 280.523 333.296 278.573V267.981Z" fill="white"/>
<path d="M336.827 218.554C334.877 218.554 333.296 220.134 333.296 222.084V232.676C333.296 234.626 334.877 236.206 336.827 236.206H347.419C349.368 236.206 350.949 234.626 350.949 232.676V222.084C350.949 220.134 349.368 218.554 347.419 218.554H336.827Z" fill="white"/>
<path d="M333.296 382.724C333.296 380.774 334.877 379.194 336.827 379.194H347.419C349.368 379.194 350.949 380.774 350.949 382.724V393.316C350.949 395.266 349.368 396.846 347.419 396.846H336.827C334.877 396.846 333.296 395.266 333.296 393.316V382.724Z" fill="white"/>
<path d="M336.827 103.811C334.877 103.811 333.296 105.391 333.296 107.341V117.933C333.296 119.883 334.877 121.464 336.827 121.464H347.419C349.368 121.464 350.949 119.883 350.949 117.933V107.341C350.949 105.391 349.368 103.811 347.419 103.811H336.827Z" fill="white"/>
<path d="M333.296 176.187C333.296 174.237 334.877 172.656 336.827 172.656H347.419C349.368 172.656 350.949 174.237 350.949 176.187V186.779C350.949 188.729 349.368 190.309 347.419 190.309H336.827C334.877 190.309 333.296 188.729 333.296 186.779V176.187Z" fill="white"/>
<path d="M336.827 310.348C334.877 310.348 333.296 311.929 333.296 313.878V324.47C333.296 326.42 334.877 328.001 336.827 328.001H347.419C349.368 328.001 350.949 326.42 350.949 324.47V313.878C350.949 311.929 349.368 310.348 347.419 310.348H336.827Z" fill="white"/>
<path d="M356.245 199.136C356.245 197.186 357.826 195.605 359.775 195.605H370.367C372.317 195.605 373.898 197.186 373.898 199.136V209.727C373.898 211.677 372.317 213.258 370.367 213.258H359.775C357.826 213.258 356.245 211.677 356.245 209.727V199.136Z" fill="white"/>
<path d="M359.775 287.399C357.826 287.399 356.245 288.98 356.245 290.93V301.521C356.245 303.471 357.826 305.052 359.775 305.052H370.367C372.317 305.052 373.898 303.471 373.898 301.521V290.93C373.898 288.98 372.317 287.399 370.367 287.399H359.775Z" fill="white"/>
<path d="M356.245 176.187C356.245 174.237 357.826 172.656 359.775 172.656H370.367C372.317 172.656 373.898 174.237 373.898 176.187V186.779C373.898 188.729 372.317 190.309 370.367 190.309H359.775C357.826 190.309 356.245 188.729 356.245 186.779V176.187Z" fill="white"/>
<path d="M359.775 310.348C357.826 310.348 356.245 311.929 356.245 313.878V324.47C356.245 326.42 357.826 328.001 359.775 328.001H370.367C372.317 328.001 373.898 326.42 373.898 324.47V313.878C373.898 311.929 372.317 310.348 370.367 310.348H359.775Z" fill="white"/>
<path d="M379.194 336.827C379.194 334.877 380.774 333.296 382.724 333.296H393.316C395.266 333.296 396.846 334.877 396.846 336.827V347.419C396.846 349.368 395.266 350.949 393.316 350.949H382.724C380.774 350.949 379.194 349.368 379.194 347.419V336.827Z" fill="white"/>
<path d="M382.724 149.708C380.774 149.708 379.194 151.289 379.194 153.238V163.83C379.194 165.78 380.774 167.361 382.724 167.361H393.316C395.266 167.361 396.846 165.78 396.846 163.83V153.238C396.846 151.289 395.266 149.708 393.316 149.708H382.724Z" fill="white"/>
<path d="M379.194 176.187C379.194 174.237 380.774 172.656 382.724 172.656H393.316C395.266 172.656 396.846 174.237 396.846 176.187V186.779C396.846 188.729 395.266 190.309 393.316 190.309H382.724C380.774 190.309 379.194 188.729 379.194 186.779V176.187Z" fill="white"/>
<path d="M382.724 310.348C380.774 310.348 379.194 311.929 379.194 313.878V324.47C379.194 326.42 380.774 328.001 382.724 328.001H393.316C395.266 328.001 396.846 326.42 396.846 324.47V313.878C396.846 311.929 395.266 310.348 393.316 310.348H382.724Z" fill="white"/>
</svg>
