<?xml version="1.0" encoding="UTF-8" standalone="no"?>
<svg
   width="293.035"
   height="293.035"
   viewBox="0 0 293.035 293.035"
   fill="none"
   version="1.1"
   id="svg73"
   sodipodi:docname="logo_plain.svg"
   inkscape:version="1.3.2 (091e20ef0f, 2023-11-25)"
   xmlns:inkscape="http://www.inkscape.org/namespaces/inkscape"
   xmlns:sodipodi="http://sodipodi.sourceforge.net/DTD/sodipodi-0.dtd"
   xmlns="http://www.w3.org/2000/svg"
   xmlns:svg="http://www.w3.org/2000/svg">
  <defs
     id="defs73" />
  <sodipodi:namedview
     id="namedview73"
     pagecolor="#ffffff"
     bordercolor="#000000"
     borderopacity="0.25"
     inkscape:showpageshadow="2"
     inkscape:pageopacity="0.0"
     inkscape:pagecheckerboard="0"
     inkscape:deskcolor="#d1d1d1"
     showgrid="false"
     inkscape:zoom="2.232"
     inkscape:cx="145.83333"
     inkscape:cy="146.05735"
     inkscape:window-width="2554"
     inkscape:window-height="1410"
     inkscape:window-x="0"
     inkscape:window-y="24"
     inkscape:window-maximized="0"
     inkscape:current-layer="svg73" />
  <path
     d="m 72.376,0 c -1.95,0 -3.531,1.58 -3.531,3.53 v 10.592 c 0,1.95 1.581,3.531 3.531,3.531 h 10.592 c 1.95,0 3.53,-1.581 3.53,-3.531 V 3.53 C 86.498,1.58 84.918,0 82.968,0 Z"
     fill="#ffffff"
     id="path2"
     style="fill:#000000;fill-opacity:1" />
  <path
     d="m 72.376,22.948 c -1.95,0 -3.531,1.581 -3.531,3.531 v 10.592 c 0,1.949 1.581,3.53 3.531,3.53 h 10.592 c 1.95,0 3.53,-1.581 3.53,-3.53 V 26.479 c 0,-1.95 -1.58,-3.531 -3.53,-3.531 z"
     fill="#ffffff"
     id="path3"
     style="fill:#000000;fill-opacity:1" />
  <path
     d="m 72.376,160.64 c -1.95,0 -3.531,1.58 -3.531,3.53 v 10.592 c 0,1.95 1.581,3.53 3.531,3.53 h 10.592 c 1.95,0 3.53,-1.58 3.53,-3.53 V 164.17 c 0,-1.95 -1.58,-3.53 -3.53,-3.53 z"
     fill="#ffffff"
     id="path4"
     style="fill:#000000;fill-opacity:1" />
  <path
     d="m 68.845,95.325 c 0,-1.95 1.581,-3.531 3.531,-3.531 h 10.592 c 1.95,0 3.53,1.581 3.53,3.531 v 10.591 c 0,1.95 -1.58,3.531 -3.53,3.531 H 72.376 c -1.95,0 -3.531,-1.581 -3.531,-3.531 z"
     fill="#ffffff"
     id="path5"
     style="fill:#000000;fill-opacity:1" />
  <path
     d="m 72.376,229.485 c -1.95,0 -3.531,1.581 -3.531,3.531 v 10.592 c 0,1.949 1.581,3.53 3.531,3.53 h 10.592 c 1.95,0 3.53,-1.581 3.53,-3.53 v -10.592 c 0,-1.95 -1.58,-3.531 -3.53,-3.531 z"
     fill="#ffffff"
     id="path6"
     style="fill:#000000;fill-opacity:1" />
  <path
     d="m 68.845,49.427 c 0,-1.949 1.581,-3.53 3.531,-3.53 h 10.592 c 1.95,0 3.53,1.581 3.53,3.53 v 10.592 c 0,1.95 -1.58,3.531 -3.53,3.531 H 72.376 c -1.95,0 -3.531,-1.581 -3.531,-3.531 z"
     fill="#ffffff"
     id="path7"
     style="fill:#000000;fill-opacity:1" />
  <path
     d="m 72.376,183.588 c -1.95,0 -3.531,1.581 -3.531,3.531 v 10.591 c 0,1.95 1.581,3.531 3.531,3.531 h 10.592 c 1.95,0 3.53,-1.581 3.53,-3.531 v -10.591 c 0,-1.95 -1.58,-3.531 -3.53,-3.531 z"
     fill="#ffffff"
     id="path8"
     style="fill:#000000;fill-opacity:1" />
  <path
     d="m 68.845,118.273 c 0,-1.95 1.581,-3.53 3.531,-3.53 h 10.592 c 1.95,0 3.53,1.58 3.53,3.53 v 10.592 c 0,1.95 -1.58,3.53 -3.53,3.53 H 72.376 c -1.95,0 -3.531,-1.58 -3.531,-3.53 z"
     fill="#ffffff"
     id="path9"
     style="fill:#000000;fill-opacity:1" />
  <path
     d="m 72.376,252.434 c -1.95,0 -3.531,1.581 -3.531,3.53 v 10.592 c 0,1.95 1.581,3.531 3.531,3.531 h 10.592 c 1.95,0 3.53,-1.581 3.53,-3.531 v -10.592 c 0,-1.949 -1.58,-3.53 -3.53,-3.53 z"
     fill="#ffffff"
     id="path10"
     style="fill:#000000;fill-opacity:1" />
  <path
     d="m 68.845,278.913 c 0,-1.95 1.581,-3.53 3.531,-3.53 h 10.592 c 1.95,0 3.53,1.58 3.53,3.53 v 10.592 c 0,1.95 -1.58,3.53 -3.53,3.53 H 72.376 c -1.95,0 -3.531,-1.58 -3.531,-3.53 z"
     fill="#ffffff"
     id="path11"
     style="fill:#000000;fill-opacity:1" />
  <path
     d="m 206.537,26.479 c 0,-1.95 1.58,-3.531 3.53,-3.531 h 10.592 c 1.95,0 3.531,1.581 3.531,3.531 v 10.592 c 0,1.949 -1.581,3.53 -3.531,3.53 h -10.592 c -1.95,0 -3.53,-1.581 -3.53,-3.53 z"
     fill="#ffffff"
     id="path12"
     style="fill:#000000;fill-opacity:1" />
  <path
     d="m 210.067,160.64 c -1.95,0 -3.53,1.58 -3.53,3.53 v 10.592 c 0,1.95 1.58,3.53 3.53,3.53 h 10.592 c 1.95,0 3.531,-1.58 3.531,-3.53 V 164.17 c 0,-1.95 -1.581,-3.53 -3.531,-3.53 z"
     fill="#ffffff"
     id="path13"
     style="fill:#000000;fill-opacity:1" />
  <path
     d="m 206.537,95.325 c 0,-1.95 1.58,-3.531 3.53,-3.531 h 10.592 c 1.95,0 3.531,1.581 3.531,3.531 v 10.591 c 0,1.95 -1.581,3.531 -3.531,3.531 h -10.592 c -1.95,0 -3.53,-1.581 -3.53,-3.531 z"
     fill="#ffffff"
     id="path14"
     style="fill:#000000;fill-opacity:1" />
  <path
     d="m 210.067,229.485 c -1.95,0 -3.53,1.581 -3.53,3.531 v 10.592 c 0,1.949 1.58,3.53 3.53,3.53 h 10.592 c 1.95,0 3.531,-1.581 3.531,-3.53 v -10.592 c 0,-1.95 -1.581,-3.531 -3.531,-3.531 z"
     fill="#ffffff"
     id="path15"
     style="fill:#000000;fill-opacity:1" />
  <path
     d="m 206.537,49.427 c 0,-1.949 1.58,-3.53 3.53,-3.53 h 10.592 c 1.95,0 3.531,1.581 3.531,3.53 v 10.592 c 0,1.95 -1.581,3.531 -3.531,3.531 h -10.592 c -1.95,0 -3.53,-1.581 -3.53,-3.531 z"
     fill="#ffffff"
     id="path16"
     style="fill:#000000;fill-opacity:1" />
  <path
     d="m 210.067,183.588 c -1.95,0 -3.53,1.581 -3.53,3.531 v 10.591 c 0,1.95 1.58,3.531 3.53,3.531 h 10.592 c 1.95,0 3.531,-1.581 3.531,-3.531 v -10.591 c 0,-1.95 -1.581,-3.531 -3.531,-3.531 z"
     fill="#ffffff"
     id="path17"
     style="fill:#000000;fill-opacity:1" />
  <path
     d="m 206.537,118.273 c 0,-1.95 1.58,-3.53 3.53,-3.53 h 10.592 c 1.95,0 3.531,1.58 3.531,3.53 v 10.592 c 0,1.95 -1.581,3.53 -3.531,3.53 h -10.592 c -1.95,0 -3.53,-1.58 -3.53,-3.53 z"
     fill="#ffffff"
     id="path18"
     style="fill:#000000;fill-opacity:1" />
  <path
     d="m 210.067,252.434 c -1.95,0 -3.53,1.581 -3.53,3.53 v 10.592 c 0,1.95 1.58,3.531 3.53,3.531 h 10.592 c 1.95,0 3.531,-1.581 3.531,-3.531 v -10.592 c 0,-1.949 -1.581,-3.53 -3.531,-3.53 z"
     fill="#ffffff"
     id="path19"
     style="fill:#000000;fill-opacity:1" />
  <path
     d="m 206.537,278.913 c 0,-1.95 1.58,-3.53 3.53,-3.53 h 10.592 c 1.95,0 3.531,1.58 3.531,3.53 v 10.592 c 0,1.95 -1.581,3.53 -3.531,3.53 h -10.592 c -1.95,0 -3.53,-1.58 -3.53,-3.53 z"
     fill="#ffffff"
     id="path20"
     style="fill:#000000;fill-opacity:1" />
  <path
     d="m 210.067,0 c -1.95,0 -3.53,1.58 -3.53,3.53 v 10.592 c 0,1.95 1.58,3.531 3.53,3.531 h 10.592 c 1.95,0 3.531,-1.581 3.531,-3.531 V 3.53 C 224.19,1.58 222.609,0 220.659,0 Z"
     fill="#ffffff"
     id="path21"
     style="fill:#000000;fill-opacity:1" />
  <path
     d="m 0,233.016 c 0,-1.95 1.58,-3.531 3.53,-3.531 h 10.592 c 1.95,0 3.531,1.581 3.531,3.531 v 10.592 c 0,1.949 -1.581,3.53 -3.531,3.53 H 3.53 c -1.95,0 -3.53,-1.581 -3.53,-3.53 z"
     fill="#ffffff"
     id="path22"
     style="fill:#000000;fill-opacity:1" />
  <path
     d="M 3.53,45.897 C 1.58,45.897 0,47.478 0,49.427 v 10.592 c 0,1.95 1.58,3.531 3.53,3.531 h 10.592 c 1.95,0 3.531,-1.581 3.531,-3.531 V 49.427 c 0,-1.949 -1.581,-3.53 -3.531,-3.53 z"
     fill="#ffffff"
     id="path23"
     style="fill:#000000;fill-opacity:1" />
  <path
     d="m 0,72.376 c 0,-1.95 1.58,-3.531 3.53,-3.531 h 10.592 c 1.95,0 3.531,1.581 3.531,3.531 v 10.592 c 0,1.95 -1.581,3.53 -3.531,3.53 H 3.53 C 1.58,86.498 0,84.918 0,82.968 Z"
     fill="#ffffff"
     id="path24"
     style="fill:#000000;fill-opacity:1" />
  <path
     d="m 3.53,206.537 c -1.95,0 -3.53,1.581 -3.53,3.53 v 10.592 c 0,1.95 1.58,3.531 3.53,3.531 h 10.592 c 1.95,0 3.531,-1.581 3.531,-3.531 v -10.592 c 0,-1.949 -1.581,-3.53 -3.531,-3.53 z"
     fill="#ffffff"
     id="path25"
     style="fill:#000000;fill-opacity:1" />
  <path
     d="m 22.948,95.325 c 0,-1.95 1.581,-3.531 3.531,-3.531 h 10.592 c 1.949,0 3.53,1.581 3.53,3.531 v 10.591 c 0,1.95 -1.581,3.531 -3.53,3.531 H 26.479 c -1.95,0 -3.531,-1.581 -3.531,-3.531 z"
     fill="#ffffff"
     id="path26"
     style="fill:#000000;fill-opacity:1" />
  <path
     d="m 26.479,183.588 c -1.95,0 -3.531,1.581 -3.531,3.531 v 10.591 c 0,1.95 1.581,3.531 3.531,3.531 h 10.592 c 1.949,0 3.53,-1.581 3.53,-3.531 v -10.591 c 0,-1.95 -1.581,-3.531 -3.53,-3.531 z"
     fill="#ffffff"
     id="path27"
     style="fill:#000000;fill-opacity:1" />
  <path
     d="m 22.948,72.376 c 0,-1.95 1.581,-3.531 3.531,-3.531 h 10.592 c 1.949,0 3.53,1.581 3.53,3.531 v 10.592 c 0,1.95 -1.581,3.53 -3.53,3.53 H 26.479 c -1.95,0 -3.531,-1.58 -3.531,-3.53 z"
     fill="#ffffff"
     id="path28"
     style="fill:#000000;fill-opacity:1" />
  <path
     d="m 26.479,206.537 c -1.95,0 -3.531,1.581 -3.531,3.53 v 10.592 c 0,1.95 1.581,3.531 3.531,3.531 h 10.592 c 1.949,0 3.53,-1.581 3.53,-3.531 v -10.592 c 0,-1.949 -1.581,-3.53 -3.53,-3.53 z"
     fill="#ffffff"
     id="path29"
     style="fill:#000000;fill-opacity:1" />
  <path
     d="m 45.897,164.17 c 0,-1.95 1.581,-3.53 3.53,-3.53 h 10.592 c 1.95,0 3.531,1.58 3.531,3.53 v 10.592 c 0,1.95 -1.581,3.53 -3.531,3.53 H 49.427 c -1.949,0 -3.53,-1.58 -3.53,-3.53 z"
     fill="#ffffff"
     id="path30"
     style="fill:#000000;fill-opacity:1" />
  <path
     d="m 49.427,114.743 c -1.949,0 -3.53,1.58 -3.53,3.53 v 10.592 c 0,1.95 1.581,3.53 3.53,3.53 h 10.592 c 1.95,0 3.531,-1.58 3.531,-3.53 v -10.592 c 0,-1.95 -1.581,-3.53 -3.531,-3.53 z"
     fill="#ffffff"
     id="path31"
     style="fill:#000000;fill-opacity:1" />
  <path
     d="m 45.897,278.913 c 0,-1.95 1.581,-3.53 3.53,-3.53 h 10.592 c 1.95,0 3.531,1.58 3.531,3.53 v 10.592 c 0,1.95 -1.581,3.53 -3.531,3.53 H 49.427 c -1.949,0 -3.53,-1.58 -3.53,-3.53 z"
     fill="#ffffff"
     id="path32"
     style="fill:#000000;fill-opacity:1" />
  <path
     d="m 49.427,0 c -1.949,0 -3.53,1.58 -3.53,3.53 v 10.592 c 0,1.95 1.581,3.531 3.53,3.531 h 10.592 c 1.95,0 3.531,-1.581 3.531,-3.531 V 3.53 C 63.55,1.58 61.969,0 60.019,0 Z"
     fill="#ffffff"
     id="path33"
     style="fill:#000000;fill-opacity:1" />
  <path
     d="m 45.897,72.376 c 0,-1.95 1.581,-3.531 3.53,-3.531 h 10.592 c 1.95,0 3.531,1.581 3.531,3.531 v 10.592 c 0,1.95 -1.581,3.53 -3.531,3.53 H 49.427 c -1.949,0 -3.53,-1.58 -3.53,-3.53 z"
     fill="#ffffff"
     id="path34"
     style="fill:#000000;fill-opacity:1" />
  <path
     d="m 49.427,206.537 c -1.949,0 -3.53,1.581 -3.53,3.53 v 10.592 c 0,1.95 1.581,3.531 3.53,3.531 h 10.592 c 1.95,0 3.531,-1.581 3.531,-3.531 v -10.592 c 0,-1.949 -1.581,-3.53 -3.531,-3.53 z"
     fill="#ffffff"
     id="path35"
     style="fill:#000000;fill-opacity:1" />
  <path
     d="m 91.794,26.479 c 0,-1.95 1.581,-3.531 3.531,-3.531 h 10.591 c 1.95,0 3.531,1.581 3.531,3.531 v 10.592 c 0,1.949 -1.581,3.53 -3.531,3.53 H 95.325 c -1.95,0 -3.531,-1.581 -3.531,-3.53 z"
     fill="#ffffff"
     id="path36"
     style="fill:#000000;fill-opacity:1" />
  <path
     d="m 95.325,160.64 c -1.95,0 -3.531,1.58 -3.531,3.53 v 10.592 c 0,1.95 1.581,3.53 3.531,3.53 h 10.591 c 1.95,0 3.531,-1.58 3.531,-3.53 V 164.17 c 0,-1.95 -1.581,-3.53 -3.531,-3.53 z"
     fill="#ffffff"
     id="path37"
     style="fill:#000000;fill-opacity:1" />
  <path
     d="m 91.794,118.273 c 0,-1.95 1.581,-3.53 3.531,-3.53 h 10.591 c 1.95,0 3.531,1.58 3.531,3.53 v 10.592 c 0,1.95 -1.581,3.53 -3.531,3.53 H 95.325 c -1.95,0 -3.531,-1.58 -3.531,-3.53 z"
     fill="#ffffff"
     id="path38"
     style="fill:#000000;fill-opacity:1" />
  <path
     d="m 95.325,252.434 c -1.95,0 -3.531,1.581 -3.531,3.53 v 10.592 c 0,1.95 1.581,3.531 3.531,3.531 h 10.591 c 1.95,0 3.531,-1.581 3.531,-3.531 v -10.592 c 0,-1.949 -1.581,-3.53 -3.531,-3.53 z"
     fill="#ffffff"
     id="path39"
     style="fill:#000000;fill-opacity:1" />
  <path
     d="m 91.794,72.376 c 0,-1.95 1.581,-3.531 3.531,-3.531 h 10.591 c 1.95,0 3.531,1.581 3.531,3.531 v 10.592 c 0,1.95 -1.581,3.53 -3.531,3.53 H 95.325 c -1.95,0 -3.531,-1.58 -3.531,-3.53 z"
     fill="#ffffff"
     id="path40"
     style="fill:#000000;fill-opacity:1" />
  <path
     d="m 95.325,206.537 c -1.95,0 -3.531,1.581 -3.531,3.53 v 10.592 c 0,1.95 1.581,3.531 3.531,3.531 h 10.591 c 1.95,0 3.531,-1.581 3.531,-3.531 v -10.592 c 0,-1.949 -1.581,-3.53 -3.531,-3.53 z"
     fill="#ffffff"
     id="path41"
     style="fill:#000000;fill-opacity:1" />
  <path
     d="m 114.743,95.325 c 0,-1.95 1.58,-3.531 3.53,-3.531 h 10.592 c 1.95,0 3.53,1.581 3.53,3.531 v 10.591 c 0,1.95 -1.58,3.531 -3.53,3.531 h -10.592 c -1.95,0 -3.53,-1.581 -3.53,-3.531 z"
     fill="#ffffff"
     id="path42"
     style="fill:#000000;fill-opacity:1" />
  <path
     d="m 118.273,229.485 c -1.95,0 -3.53,1.581 -3.53,3.531 v 10.592 c 0,1.949 1.58,3.53 3.53,3.53 h 10.592 c 1.95,0 3.53,-1.581 3.53,-3.53 v -10.592 c 0,-1.95 -1.58,-3.531 -3.53,-3.531 z"
     fill="#ffffff"
     id="path43"
     style="fill:#000000;fill-opacity:1" />
  <path
     d="m 114.743,49.427 c 0,-1.949 1.58,-3.53 3.53,-3.53 h 10.592 c 1.95,0 3.53,1.581 3.53,3.53 v 10.592 c 0,1.95 -1.58,3.531 -3.53,3.531 h -10.592 c -1.95,0 -3.53,-1.581 -3.53,-3.531 z"
     fill="#ffffff"
     id="path44"
     style="fill:#000000;fill-opacity:1" />
  <path
     d="m 118.273,183.588 c -1.95,0 -3.53,1.581 -3.53,3.531 v 10.591 c 0,1.95 1.58,3.531 3.53,3.531 h 10.592 c 1.95,0 3.53,-1.581 3.53,-3.531 v -10.591 c 0,-1.95 -1.58,-3.531 -3.53,-3.531 z"
     fill="#ffffff"
     id="path45"
     style="fill:#000000;fill-opacity:1" />
  <path
     d="m 114.743,72.376 c 0,-1.95 1.58,-3.531 3.53,-3.531 h 10.592 c 1.95,0 3.53,1.581 3.53,3.531 v 10.592 c 0,1.95 -1.58,3.53 -3.53,3.53 h -10.592 c -1.95,0 -3.53,-1.58 -3.53,-3.53 z"
     fill="#ffffff"
     id="path46"
     style="fill:#000000;fill-opacity:1" />
  <path
     d="m 118.273,206.537 c -1.95,0 -3.53,1.581 -3.53,3.53 v 10.592 c 0,1.95 1.58,3.531 3.53,3.531 h 10.592 c 1.95,0 3.53,-1.581 3.53,-3.531 v -10.592 c 0,-1.949 -1.58,-3.53 -3.53,-3.53 z"
     fill="#ffffff"
     id="path47"
     style="fill:#000000;fill-opacity:1" />
  <path
     d="m 160.64,95.325 c 0,-1.95 1.58,-3.531 3.53,-3.531 h 10.592 c 1.95,0 3.53,1.581 3.53,3.531 v 10.591 c 0,1.95 -1.58,3.531 -3.53,3.531 H 164.17 c -1.95,0 -3.53,-1.581 -3.53,-3.531 z"
     fill="#ffffff"
     id="path48"
     style="fill:#000000;fill-opacity:1" />
  <path
     d="m 164.17,229.485 c -1.95,0 -3.53,1.581 -3.53,3.531 v 10.592 c 0,1.949 1.58,3.53 3.53,3.53 h 10.592 c 1.95,0 3.53,-1.581 3.53,-3.53 v -10.592 c 0,-1.95 -1.58,-3.531 -3.53,-3.531 z"
     fill="#ffffff"
     id="path49"
     style="fill:#000000;fill-opacity:1" />
  <path
     d="m 160.64,49.427 c 0,-1.949 1.58,-3.53 3.53,-3.53 h 10.592 c 1.95,0 3.53,1.581 3.53,3.53 v 10.592 c 0,1.95 -1.58,3.531 -3.53,3.531 H 164.17 c -1.95,0 -3.53,-1.581 -3.53,-3.531 z"
     fill="#ffffff"
     id="path50"
     style="fill:#000000;fill-opacity:1" />
  <path
     d="m 164.17,183.588 c -1.95,0 -3.53,1.581 -3.53,3.531 v 10.591 c 0,1.95 1.58,3.531 3.53,3.531 h 10.592 c 1.95,0 3.53,-1.581 3.53,-3.531 v -10.591 c 0,-1.95 -1.58,-3.531 -3.53,-3.531 z"
     fill="#ffffff"
     id="path51"
     style="fill:#000000;fill-opacity:1" />
  <path
     d="m 160.64,72.376 c 0,-1.95 1.58,-3.531 3.53,-3.531 h 10.592 c 1.95,0 3.53,1.581 3.53,3.531 v 10.592 c 0,1.95 -1.58,3.53 -3.53,3.53 H 164.17 c -1.95,0 -3.53,-1.58 -3.53,-3.53 z"
     fill="#ffffff"
     id="path52"
     style="fill:#000000;fill-opacity:1" />
  <path
     d="m 164.17,206.537 c -1.95,0 -3.53,1.581 -3.53,3.53 v 10.592 c 0,1.95 1.58,3.531 3.53,3.531 h 10.592 c 1.95,0 3.53,-1.581 3.53,-3.531 v -10.592 c 0,-1.949 -1.58,-3.53 -3.53,-3.53 z"
     fill="#ffffff"
     id="path53"
     style="fill:#000000;fill-opacity:1" />
  <path
     d="m 183.588,26.479 c 0,-1.95 1.581,-3.531 3.531,-3.531 h 10.591 c 1.95,0 3.531,1.581 3.531,3.531 v 10.592 c 0,1.949 -1.581,3.53 -3.531,3.53 h -10.591 c -1.95,0 -3.531,-1.581 -3.531,-3.53 z"
     fill="#ffffff"
     id="path54"
     style="fill:#000000;fill-opacity:1" />
  <path
     d="m 187.119,160.64 c -1.95,0 -3.531,1.58 -3.531,3.53 v 10.592 c 0,1.95 1.581,3.53 3.531,3.53 h 10.591 c 1.95,0 3.531,-1.58 3.531,-3.53 V 164.17 c 0,-1.95 -1.581,-3.53 -3.531,-3.53 z"
     fill="#ffffff"
     id="path55"
     style="fill:#000000;fill-opacity:1" />
  <path
     d="m 183.588,118.273 c 0,-1.95 1.581,-3.53 3.531,-3.53 h 10.591 c 1.95,0 3.531,1.58 3.531,3.53 v 10.592 c 0,1.95 -1.581,3.53 -3.531,3.53 h -10.591 c -1.95,0 -3.531,-1.58 -3.531,-3.53 z"
     fill="#ffffff"
     id="path56"
     style="fill:#000000;fill-opacity:1" />
  <path
     d="m 187.119,252.434 c -1.95,0 -3.531,1.581 -3.531,3.53 v 10.592 c 0,1.95 1.581,3.531 3.531,3.531 h 10.591 c 1.95,0 3.531,-1.581 3.531,-3.531 v -10.592 c 0,-1.949 -1.581,-3.53 -3.531,-3.53 z"
     fill="#ffffff"
     id="path57"
     style="fill:#000000;fill-opacity:1" />
  <path
     d="m 183.588,72.376 c 0,-1.95 1.581,-3.531 3.531,-3.531 h 10.591 c 1.95,0 3.531,1.581 3.531,3.531 v 10.592 c 0,1.95 -1.581,3.53 -3.531,3.53 h -10.591 c -1.95,0 -3.531,-1.58 -3.531,-3.53 z"
     fill="#ffffff"
     id="path58"
     style="fill:#000000;fill-opacity:1" />
  <path
     d="m 187.119,206.537 c -1.95,0 -3.531,1.581 -3.531,3.53 v 10.592 c 0,1.95 1.581,3.531 3.531,3.531 h 10.591 c 1.95,0 3.531,-1.581 3.531,-3.531 v -10.592 c 0,-1.949 -1.581,-3.53 -3.531,-3.53 z"
     fill="#ffffff"
     id="path59"
     style="fill:#000000;fill-opacity:1" />
  <path
     d="m 229.485,164.17 c 0,-1.95 1.581,-3.53 3.531,-3.53 h 10.592 c 1.949,0 3.53,1.58 3.53,3.53 v 10.592 c 0,1.95 -1.581,3.53 -3.53,3.53 h -10.592 c -1.95,0 -3.531,-1.58 -3.531,-3.53 z"
     fill="#ffffff"
     id="path60"
     style="fill:#000000;fill-opacity:1" />
  <path
     d="m 233.016,114.743 c -1.95,0 -3.531,1.58 -3.531,3.53 v 10.592 c 0,1.95 1.581,3.53 3.531,3.53 h 10.592 c 1.949,0 3.53,-1.58 3.53,-3.53 v -10.592 c 0,-1.95 -1.581,-3.53 -3.53,-3.53 z"
     fill="#ffffff"
     id="path61"
     style="fill:#000000;fill-opacity:1" />
  <path
     d="m 229.485,278.913 c 0,-1.95 1.581,-3.53 3.531,-3.53 h 10.592 c 1.949,0 3.53,1.58 3.53,3.53 v 10.592 c 0,1.95 -1.581,3.53 -3.53,3.53 h -10.592 c -1.95,0 -3.531,-1.58 -3.531,-3.53 z"
     fill="#ffffff"
     id="path62"
     style="fill:#000000;fill-opacity:1" />
  <path
     d="m 233.016,0 c -1.95,0 -3.531,1.58 -3.531,3.53 v 10.592 c 0,1.95 1.581,3.531 3.531,3.531 h 10.592 c 1.949,0 3.53,-1.581 3.53,-3.531 V 3.53 c 0,-1.95 -1.581,-3.53 -3.53,-3.53 z"
     fill="#ffffff"
     id="path63"
     style="fill:#000000;fill-opacity:1" />
  <path
     d="m 229.485,72.376 c 0,-1.95 1.581,-3.531 3.531,-3.531 h 10.592 c 1.949,0 3.53,1.581 3.53,3.531 v 10.592 c 0,1.95 -1.581,3.53 -3.53,3.53 h -10.592 c -1.95,0 -3.531,-1.58 -3.531,-3.53 z"
     fill="#ffffff"
     id="path64"
     style="fill:#000000;fill-opacity:1" />
  <path
     d="m 233.016,206.537 c -1.95,0 -3.531,1.581 -3.531,3.53 v 10.592 c 0,1.95 1.581,3.531 3.531,3.531 h 10.592 c 1.949,0 3.53,-1.581 3.53,-3.531 v -10.592 c 0,-1.949 -1.581,-3.53 -3.53,-3.53 z"
     fill="#ffffff"
     id="path65"
     style="fill:#000000;fill-opacity:1" />
  <path
     d="m 252.434,95.325 c 0,-1.95 1.581,-3.531 3.53,-3.531 h 10.592 c 1.95,0 3.531,1.581 3.531,3.531 v 10.591 c 0,1.95 -1.581,3.531 -3.531,3.531 h -10.592 c -1.949,0 -3.53,-1.581 -3.53,-3.531 z"
     fill="#ffffff"
     id="path66"
     style="fill:#000000;fill-opacity:1" />
  <path
     d="m 255.964,183.588 c -1.949,0 -3.53,1.581 -3.53,3.531 v 10.591 c 0,1.95 1.581,3.531 3.53,3.531 h 10.592 c 1.95,0 3.531,-1.581 3.531,-3.531 v -10.591 c 0,-1.95 -1.581,-3.531 -3.531,-3.531 z"
     fill="#ffffff"
     id="path67"
     style="fill:#000000;fill-opacity:1" />
  <path
     d="m 252.434,72.376 c 0,-1.95 1.581,-3.531 3.53,-3.531 h 10.592 c 1.95,0 3.531,1.581 3.531,3.531 v 10.592 c 0,1.95 -1.581,3.53 -3.531,3.53 h -10.592 c -1.949,0 -3.53,-1.58 -3.53,-3.53 z"
     fill="#ffffff"
     id="path68"
     style="fill:#000000;fill-opacity:1" />
  <path
     d="m 255.964,206.537 c -1.949,0 -3.53,1.581 -3.53,3.53 v 10.592 c 0,1.95 1.581,3.531 3.53,3.531 h 10.592 c 1.95,0 3.531,-1.581 3.531,-3.531 v -10.592 c 0,-1.949 -1.581,-3.53 -3.531,-3.53 z"
     fill="#ffffff"
     id="path69"
     style="fill:#000000;fill-opacity:1" />
  <path
     d="m 275.383,233.016 c 0,-1.95 1.58,-3.531 3.53,-3.531 h 10.592 c 1.95,0 3.53,1.581 3.53,3.531 v 10.592 c 0,1.949 -1.58,3.53 -3.53,3.53 h -10.592 c -1.95,0 -3.53,-1.581 -3.53,-3.53 z"
     fill="#ffffff"
     id="path70"
     style="fill:#000000;fill-opacity:1" />
  <path
     d="m 278.913,45.897 c -1.95,0 -3.53,1.581 -3.53,3.53 v 10.592 c 0,1.95 1.58,3.531 3.53,3.531 h 10.592 c 1.95,0 3.53,-1.581 3.53,-3.531 V 49.427 c 0,-1.949 -1.58,-3.53 -3.53,-3.53 z"
     fill="#ffffff"
     id="path71"
     style="fill:#000000;fill-opacity:1" />
  <path
     d="m 275.383,72.376 c 0,-1.95 1.58,-3.531 3.53,-3.531 h 10.592 c 1.95,0 3.53,1.581 3.53,3.531 v 10.592 c 0,1.95 -1.58,3.53 -3.53,3.53 h -10.592 c -1.95,0 -3.53,-1.58 -3.53,-3.53 z"
     fill="#ffffff"
     id="path72"
     style="fill:#000000;fill-opacity:1" />
  <path
     d="m 278.913,206.537 c -1.95,0 -3.53,1.581 -3.53,3.53 v 10.592 c 0,1.95 1.58,3.531 3.53,3.531 h 10.592 c 1.95,0 3.53,-1.581 3.53,-3.531 v -10.592 c 0,-1.949 -1.58,-3.53 -3.53,-3.53 z"
     fill="#ffffff"
     id="path73"
     style="fill:#000000;fill-opacity:1" />
</svg>
