<?xml version="1.0" standalone="no"?>
<!DOCTYPE svg PUBLIC "-//W3C//DTD SVG 20010904//EN"
 "http://www.w3.org/TR/2001/REC-SVG-20010904/DTD/svg10.dtd">
<svg version="1.0" xmlns="http://www.w3.org/2000/svg"
 width="700.000000pt" height="700.000000pt" viewBox="0 0 700.000000 700.000000"
 preserveAspectRatio="xMidYMid meet">
<metadata>
Created by potrace 1.14, written by Peter Selinger 2001-2017
</metadata>
<g transform="translate(0.000000,700.000000) scale(0.100000,-0.100000)"
fill="#000000" stroke="none">
<path d="M1125 6975 c-14 -13 -25 -32 -26 -42 -1 -10 -2 -74 -3 -143 -3 -209
1 -213 211 -212 162 0 187 7 202 56 6 17 10 94 10 170 l-1 139 -28 29 -28 28
-157 0 c-152 0 -156 -1 -180 -25z"/>
<path d="M1673 6976 l-27 -24 -1 -161 c0 -159 0 -161 26 -186 25 -26 28 -26
178 -27 137 -1 155 1 179 19 36 27 39 48 38 212 l-1 143 -28 24 c-27 23 -34
24 -182 24 -148 0 -155 -1 -182 -24z"/>
<path d="M4977 6989 c-37 -22 -45 -58 -43 -212 l1 -149 28 -24 c16 -13 37 -24
48 -25 10 0 66 -1 124 -1 168 0 164 0 194 30 l27 27 -1 159 -1 158 -27 24
c-27 23 -34 24 -180 24 -85 0 -160 -5 -170 -11z"/>
<path d="M5507 6970 c-24 -28 -25 -36 -26 -157 -1 -237 -5 -233 209 -235 215
-1 217 1 215 222 -1 139 -9 171 -45 190 -10 5 -87 10 -173 10 l-155 0 -25 -30z"/>
<path d="M1753 6450 c-47 -4 -68 -11 -85 -28 -22 -21 -23 -29 -23 -183 l1
-161 27 -24 c27 -23 34 -24 183 -24 l156 0 27 28 28 27 -1 157 c-1 155 -1 158
-26 183 -23 23 -34 25 -125 28 -55 1 -128 0 -162 -3z"/>
<path d="M2320 6452 c-122 -5 -129 -17 -128 -222 1 -144 1 -144 29 -172 l27
-28 146 0 c79 0 156 4 171 10 42 16 51 53 49 216 -1 147 -1 148 -28 171 -22
19 -39 23 -94 24 -37 0 -78 1 -92 2 -14 1 -50 1 -80 -1z"/>
<path d="M4503 6450 c-112 -8 -116 -15 -118 -192 -2 -229 -3 -228 212 -228
146 0 153 1 180 24 l28 24 2 157 2 156 -27 30 c-26 28 -31 30 -117 32 -49 1
-123 0 -162 -3z"/>
<path d="M5019 6452 c-23 -2 -45 -12 -60 -28 -23 -25 -24 -31 -24 -186 l0
-160 28 -24 c27 -23 34 -24 178 -24 89 0 159 4 171 11 36 19 45 65 43 218 -1
144 -1 144 -29 167 -21 19 -39 24 -84 25 -31 0 -86 1 -122 2 -36 1 -81 1 -101
-1z"/>
<path d="M50 5893 c-16 -6 -33 -20 -39 -32 -7 -11 -11 -82 -11 -170 0 -144 1
-151 24 -178 l24 -28 157 -2 156 -1 30 26 30 27 0 153 c-1 158 -6 183 -43 203
-30 16 -292 18 -328 2z"/>
<path d="M1719 5902 c-15 -2 -37 -14 -50 -28 -23 -25 -24 -31 -23 -185 0 -215
-11 -204 209 -204 219 0 209 -9 211 192 1 161 -5 194 -41 213 -22 12 -236 20
-306 12z"/>
<path d="M2792 5896 c-47 -24 -52 -43 -52 -204 l0 -154 28 -27 28 -28 149 -1
c82 0 159 5 171 10 38 18 46 49 48 187 2 222 0 224 -210 225 -80 1 -153 -3
-162 -8z"/>
<path d="M3899 5900 c-12 -3 -31 -18 -42 -33 -19 -24 -21 -42 -20 -172 0 -154
7 -184 48 -203 12 -6 89 -10 170 -10 l149 0 28 28 28 28 0 155 c0 150 -1 155
-25 181 -13 14 -32 26 -42 27 -76 4 -276 3 -294 -1z"/>
<path d="M5004 5902 c-12 -2 -32 -14 -45 -28 -23 -24 -24 -33 -25 -172 -2
-158 7 -195 49 -211 30 -11 294 -12 323 -1 42 16 51 53 49 213 -1 145 -1 148
-27 173 -25 26 -29 27 -165 28 -76 0 -148 0 -159 -2z"/>
<path d="M6620 5888 c-16 -9 -31 -26 -35 -37 -3 -11 -6 -85 -7 -165 0 -126 2
-148 18 -169 11 -14 27 -28 36 -30 10 -3 84 -5 165 -5 l147 0 28 28 28 28 0
146 c0 79 -4 156 -10 170 -15 41 -42 48 -198 50 -120 1 -149 -2 -172 -16z"/>
<path d="M63 5352 c-13 -2 -32 -15 -43 -29 -18 -23 -20 -40 -20 -179 0 -147 1
-154 24 -181 l24 -28 161 0 c210 0 204 -5 211 169 6 151 0 200 -28 229 -20 20
-32 21 -164 22 -79 0 -153 -1 -165 -3z"/>
<path d="M601 5349 c-44 -17 -51 -44 -51 -206 0 -146 1 -153 24 -180 l24 -28
162 0 162 0 24 28 c23 27 24 34 24 182 0 147 -1 155 -24 181 l-23 28 -151 1
c-83 0 -160 -3 -171 -6z"/>
<path d="M1154 5349 c-11 -3 -28 -16 -39 -28 -17 -20 -19 -37 -19 -177 1 -155
1 -155 28 -182 l26 -27 160 0 c216 0 205 -11 205 210 0 218 10 208 -193 210
-82 1 -158 -2 -168 -6z"/>
<path d="M2237 5344 c-37 -20 -44 -51 -44 -199 -1 -146 8 -185 44 -200 10 -4
81 -9 158 -10 157 -3 197 7 212 53 5 15 9 89 8 164 -1 145 -10 182 -49 195
-38 12 -304 10 -329 -3z"/>
<path d="M2773 5334 l-28 -22 -3 -160 c-3 -157 -3 -160 21 -188 l25 -29 161 0
161 0 26 27 27 27 0 156 c0 155 -1 157 -26 183 -26 25 -28 26 -181 27 -146 1
-158 0 -183 -21z"/>
<path d="M3893 5349 c-10 -4 -27 -16 -37 -28 -18 -20 -20 -37 -19 -177 0 -155
0 -156 27 -182 26 -27 26 -27 187 -27 l161 0 25 29 c24 28 24 31 21 189 l-3
160 -28 21 c-25 18 -42 21 -172 21 -79 0 -152 -2 -162 -6z"/>
<path d="M4437 5347 c-42 -14 -51 -46 -52 -200 -2 -152 7 -186 49 -205 25 -11
303 -9 329 3 35 15 44 54 44 200 1 151 -8 187 -49 201 -31 10 -290 12 -321 1z"/>
<path d="M5520 5339 c-35 -21 -39 -42 -39 -189 -1 -217 1 -219 217 -215 81 1
154 5 163 9 36 16 44 54 43 208 0 148 -1 149 -27 175 -26 27 -28 27 -177 28
-127 1 -156 -2 -180 -16z"/>
<path d="M6093 5352 c-13 -2 -32 -15 -43 -29 -18 -23 -20 -40 -20 -179 0 -147
1 -154 24 -181 l24 -28 162 0 162 0 24 28 c23 27 24 34 24 182 0 147 -1 155
-24 181 l-23 28 -144 0 c-79 1 -154 0 -166 -2z"/>
<path d="M6608 5329 c-25 -24 -28 -35 -29 -96 -3 -234 4 -274 54 -292 12 -4
89 -8 170 -7 l149 1 24 28 c23 27 24 34 24 182 0 147 -1 155 -24 181 l-23 28
-159 1 -159 1 -27 -27z"/>
<path d="M595 4798 c-41 -23 -44 -38 -45 -200 0 -151 1 -158 24 -184 l23 -28
149 -1 c163 -2 198 7 214 51 6 14 10 91 10 170 l0 146 -28 27 -28 28 -149 1
c-93 0 -158 -4 -170 -10z"/>
<path d="M1700 4801 c-45 -12 -56 -53 -55 -209 1 -150 10 -186 49 -199 12 -4
84 -7 161 -8 146 -1 185 7 200 42 5 10 9 83 11 163 2 157 -6 193 -49 209 -26
10 -281 11 -317 2z"/>
<path d="M2803 4802 c-13 -2 -32 -15 -43 -29 -18 -23 -20 -40 -20 -172 0 -164
8 -190 58 -206 17 -6 95 -10 173 -9 136 1 142 2 166 27 25 24 26 28 26 176 0
161 -7 190 -47 209 -20 9 -264 13 -313 4z"/>
<path d="M3889 4798 c-45 -15 -54 -51 -52 -194 0 -71 1 -137 2 -146 1 -9 12
-29 24 -44 24 -27 24 -27 168 -29 79 0 157 3 172 8 48 16 57 50 57 212 l0 147
-28 27 -28 28 -144 0 c-80 1 -157 -4 -171 -9z"/>
<path d="M4973 4791 c-12 -9 -25 -25 -30 -36 -11 -22 -10 -301 1 -326 16 -36
56 -45 203 -44 150 1 186 10 200 49 10 32 11 287 0 319 -16 47 -47 56 -209 55
-118 -1 -149 -4 -165 -17z"/>
<path d="M6084 4799 c-47 -17 -54 -43 -54 -204 0 -213 -1 -212 229 -210 l144
1 23 28 c23 26 24 33 24 184 -1 163 -4 178 -45 199 -23 13 -289 15 -321 2z"/>
<path d="M1142 4250 c-39 -16 -47 -55 -46 -216 2 -147 2 -148 28 -171 30 -26
24 -25 199 -25 140 -1 169 7 186 51 6 15 9 90 8 174 l-2 149 -28 24 c-27 23
-34 24 -175 23 -81 0 -157 -4 -170 -9z"/>
<path d="M1693 4250 c-41 -17 -50 -54 -48 -213 1 -145 1 -148 27 -174 26 -26
27 -26 183 -26 l156 0 27 27 27 26 0 161 0 161 -28 24 c-27 23 -34 24 -175 23
-81 0 -157 -4 -169 -9z"/>
<path d="M2244 4250 c-45 -18 -51 -42 -52 -193 0 -78 4 -154 9 -168 16 -42 46
-51 170 -51 182 0 186 0 215 25 27 24 27 24 29 173 2 163 -7 197 -51 214 -31
12 -291 12 -320 0z"/>
<path d="M4432 4250 c-39 -16 -48 -57 -47 -214 1 -154 5 -166 54 -189 35 -17
294 -14 326 3 36 19 42 51 42 210 0 145 0 145 -28 172 l-27 28 -149 -1 c-81 0
-158 -4 -171 -9z"/>
<path d="M4963 4236 l-28 -24 0 -161 c0 -160 0 -161 26 -187 26 -26 30 -26
155 -26 183 0 180 0 211 26 l27 24 1 148 c2 163 -7 197 -51 214 -14 6 -90 10
-169 10 -138 0 -145 -1 -172 -24z"/>
<path d="M5513 4236 l-28 -24 -3 -152 c-2 -129 0 -156 15 -181 10 -16 26 -32
38 -36 36 -11 300 -6 324 7 38 20 46 57 45 206 -1 150 -8 178 -50 194 -14 6
-90 10 -169 10 -138 0 -145 -1 -172 -24z"/>
<path d="M1164 3162 c-12 -2 -32 -14 -44 -27 -21 -22 -23 -33 -24 -170 -2
-163 7 -199 51 -216 17 -6 87 -9 175 -7 198 4 192 -1 195 186 5 235 5 234
-196 236 -75 0 -146 0 -157 -2z"/>
<path d="M1719 3162 c-15 -2 -37 -14 -50 -28 -22 -23 -23 -32 -24 -165 0 -77
4 -154 10 -172 16 -49 42 -57 207 -57 141 0 148 1 175 24 l28 24 0 161 c0 160
0 161 -26 187 -26 25 -30 26 -160 28 -74 0 -146 0 -160 -2z"/>
<path d="M2268 3162 c-68 -18 -77 -46 -75 -229 3 -192 -2 -187 184 -191 239
-6 237 -8 237 215 0 151 0 154 -26 179 -24 25 -29 26 -166 28 -78 0 -147 0
-154 -2z"/>
<path d="M4464 3162 c-17 -2 -42 -14 -54 -27 -22 -23 -23 -34 -25 -165 0 -78
4 -155 10 -173 16 -51 41 -58 213 -55 152 3 154 3 176 29 22 25 23 36 24 170
1 155 -6 189 -43 209 -22 12 -221 20 -301 12z"/>
<path d="M5023 3163 c-4 0 -20 -4 -34 -7 -47 -10 -57 -52 -55 -219 l1 -149 29
-25 c28 -24 31 -24 188 -21 l160 3 22 27 c20 26 21 38 21 183 -1 153 -1 156
-27 181 -25 25 -29 26 -161 28 -75 0 -140 0 -144 -1z"/>
<path d="M5558 3162 c-34 -9 -58 -27 -67 -51 -6 -15 -10 -89 -8 -174 l2 -149
28 -24 c27 -23 34 -24 172 -24 79 0 155 4 170 10 41 16 51 54 50 207 -1 144
-8 173 -47 194 -19 10 -268 19 -300 11z"/>
<path d="M613 2612 c-13 -2 -32 -15 -43 -29 -18 -23 -20 -40 -20 -183 l0 -158
31 -26 c30 -25 34 -26 181 -26 l150 0 29 29 29 29 0 157 c0 152 -1 156 -25
180 -13 14 -32 26 -42 26 -45 3 -270 4 -290 1z"/>
<path d="M1689 2601 c-16 -7 -32 -23 -36 -35 -10 -32 -11 -287 0 -319 15 -46
49 -56 193 -56 221 1 219 -2 220 209 1 157 -7 192 -48 206 -42 14 -298 10
-329 -5z"/>
<path d="M2798 2606 c-52 -17 -59 -42 -56 -213 4 -204 -2 -197 186 -200 233
-3 234 -2 234 180 0 182 0 184 -25 213 -23 27 -25 27 -165 29 -78 1 -156 -3
-174 -9z"/>
<path d="M3891 2609 c-46 -18 -55 -52 -54 -206 0 -156 7 -184 52 -202 15 -6
89 -9 173 -8 197 3 192 -2 196 184 6 237 7 236 -203 238 -79 0 -153 -2 -164
-6z"/>
<path d="M4992 2608 c-18 -5 -37 -18 -44 -31 -15 -28 -20 -279 -6 -325 15 -51
44 -60 203 -60 210 0 212 3 210 218 -2 153 -5 171 -40 190 -29 16 -271 21
-323 8z"/>
<path d="M6081 2604 c-16 -7 -34 -21 -40 -33 -7 -11 -11 -82 -11 -171 l0 -152
28 -27 28 -28 149 -1 c220 0 215 -5 215 208 0 152 -1 160 -24 186 l-23 28
-147 1 c-95 1 -156 -3 -175 -11z"/>
<path d="M53 2059 c-46 -17 -53 -43 -53 -207 l0 -154 29 -27 c28 -26 29 -26
186 -26 l157 0 24 28 c23 27 24 34 24 182 0 148 -1 155 -24 182 l-24 27 -149
2 c-82 0 -159 -3 -170 -7z"/>
<path d="M613 2062 c-13 -2 -32 -15 -43 -29 -18 -23 -20 -40 -20 -183 0 -155
0 -157 25 -180 25 -24 31 -24 186 -25 l161 0 24 28 c23 27 24 34 24 182 0 147
-1 155 -24 181 l-23 28 -144 1 c-79 0 -154 -1 -166 -3z"/>
<path d="M1148 2058 c-45 -15 -53 -51 -52 -213 1 -145 1 -147 28 -173 l26 -27
160 0 c215 1 204 -9 207 203 1 86 -3 164 -8 174 -19 36 -50 42 -195 43 -77 1
-152 -3 -166 -7z"/>
<path d="M2231 2049 c-35 -21 -40 -45 -39 -209 1 -135 11 -173 50 -186 13 -4
84 -8 158 -9 147 -2 193 9 206 48 11 32 12 287 1 320 -15 45 -39 51 -200 52
-123 1 -153 -2 -176 -16z"/>
<path d="M2767 2038 l-28 -28 3 -160 c4 -214 -7 -204 208 -204 l160 -1 26 27
c27 26 27 27 27 183 0 156 0 156 -27 183 -26 27 -27 27 -184 28 l-157 0 -28
-28z"/>
<path d="M3894 2060 c-10 -4 -27 -17 -38 -29 -16 -18 -19 -38 -20 -156 -2
-229 -2 -229 202 -230 153 -2 191 6 211 43 5 9 10 85 10 168 2 147 1 153 -22
180 l-25 28 -149 2 c-82 0 -158 -3 -169 -6z"/>
<path d="M4443 2058 c-49 -13 -57 -37 -58 -193 -1 -157 5 -186 41 -206 36 -19
298 -21 336 -2 38 18 47 59 46 210 0 110 -3 136 -19 162 -10 17 -27 32 -36 32
-73 6 -284 4 -310 -3z"/>
<path d="M5521 2049 c-15 -9 -31 -28 -34 -41 -3 -12 -5 -89 -4 -170 3 -200 -7
-192 207 -192 l160 -1 27 27 c26 27 27 28 27 170 0 79 -3 155 -7 170 -12 45
-39 52 -199 54 -125 1 -152 -2 -177 -17z"/>
<path d="M6084 2059 c-47 -17 -54 -43 -54 -206 0 -146 1 -153 24 -180 l24 -27
162 -1 162 0 24 28 c23 27 24 34 24 186 0 155 0 158 -25 181 -24 23 -33 24
-173 26 -81 1 -157 -2 -168 -7z"/>
<path d="M6608 2039 c-30 -29 -30 -30 -30 -264 0 -70 2 -77 30 -104 l27 -27
159 1 159 1 23 28 c23 26 24 34 24 181 0 148 -1 155 -24 182 l-24 28 -159 1
-158 0 -27 -27z"/>
<path d="M44 1508 c-36 -17 -44 -52 -44 -198 0 -149 7 -182 41 -200 26 -14
269 -20 317 -7 55 14 62 35 63 203 0 82 -3 157 -7 167 -14 37 -53 45 -204 45
-80 0 -155 -5 -166 -10z"/>
<path d="M1702 1513 c-47 -9 -58 -48 -57 -210 1 -162 9 -188 58 -201 48 -12
295 -6 322 8 36 19 44 64 41 224 -1 136 -2 139 -28 161 -25 22 -35 23 -170 22
-79 0 -153 -2 -166 -4z"/>
<path d="M2794 1510 c-47 -18 -54 -45 -54 -197 0 -78 4 -153 10 -168 16 -42
52 -50 216 -49 147 2 148 2 171 28 25 30 25 29 25 197 1 142 -3 159 -40 181
-24 14 -54 17 -168 17 -77 0 -149 -5 -160 -9z"/>
<path d="M3884 1508 c-39 -18 -47 -50 -48 -188 -2 -221 2 -226 210 -223 76 0
145 2 152 2 7 1 24 13 37 27 24 26 25 31 25 181 l0 155 -28 28 -28 28 -150 0
c-84 0 -158 -4 -170 -10z"/>
<path d="M4992 1513 c-48 -9 -59 -49 -58 -213 1 -149 1 -150 28 -177 l27 -26
156 0 c156 0 157 1 183 27 26 25 26 28 27 173 2 161 -7 197 -50 213 -23 9
-269 11 -313 3z"/>
<path d="M6625 1508 c-39 -18 -45 -42 -46 -197 -3 -216 -2 -217 224 -215 143
1 172 9 187 50 6 14 10 91 10 170 l0 146 -28 28 -28 28 -150 0 c-82 0 -158 -5
-169 -10z"/>
<path d="M1687 959 c-36 -21 -44 -58 -42 -213 l1 -149 28 -23 c25 -22 36 -24
149 -25 187 -2 189 -1 218 30 26 28 26 29 25 185 l-1 158 -28 24 c-27 23 -34
24 -180 24 -85 0 -160 -5 -170 -11z"/>
<path d="M2223 946 l-28 -24 -2 -144 c-1 -78 2 -157 7 -173 16 -50 36 -55 201
-56 215 0 216 1 214 221 -1 139 -8 170 -45 190 -10 5 -86 10 -169 10 -144 0
-151 -1 -178 -24z"/>
<path d="M4423 955 c-33 -23 -39 -60 -38 -214 1 -144 2 -144 29 -167 29 -26
29 -26 226 -24 108 1 116 2 140 26 24 24 25 28 26 181 l2 157 -28 28 -28 28
-154 0 c-120 0 -158 -3 -175 -15z"/>
<path d="M4963 946 l-28 -24 0 -161 c0 -159 0 -161 25 -186 25 -25 28 -25 179
-26 163 0 193 7 210 53 4 11 7 88 6 171 l-1 150 -28 23 c-26 23 -34 24 -181
24 -148 0 -155 -1 -182 -24z"/>
<path d="M1177 419 c-74 -12 -83 -37 -81 -219 1 -146 9 -175 50 -190 14 -6 91
-10 170 -10 l146 0 28 28 28 29 0 149 c0 159 -10 199 -53 210 -30 7 -247 10
-288 3z"/>
<path d="M1748 420 c-42 -4 -64 -11 -80 -28 -22 -21 -23 -30 -23 -183 l0 -161
28 -24 c27 -23 34 -24 182 -24 148 0 155 1 182 24 l28 24 1 149 c1 162 -3 184
-40 208 -26 18 -166 25 -278 15z"/>
<path d="M5016 419 c-21 -3 -47 -16 -59 -28 -21 -20 -22 -31 -22 -182 l0 -161
28 -24 c27 -23 34 -24 182 -24 148 0 155 1 182 24 l27 24 1 150 c0 83 -3 160
-7 171 -15 42 -50 53 -176 54 -66 1 -136 -1 -156 -4z"/>
<path d="M5590 422 c-100 -6 -112 -31 -108 -231 3 -143 3 -143 31 -167 27 -23
34 -24 181 -24 211 0 212 2 210 218 -1 152 -11 186 -57 197 -26 7 -193 11
-257 7z"/>
</g>
</svg>
